<?xml version="1.0" encoding="utf-8"?>
<!-- Generator: Adobe Illustrator 19.0.0, SVG Export Plug-In . SVG Version: 6.00 Build 0)  -->
<svg version="1.1"
	 id="svg2" xmlns:svg="http://www.w3.org/2000/svg" xmlns:rdf="http://www.w3.org/1999/02/22-rdf-syntax-ns#" xmlns:cc="http://creativecommons.org/ns#" xmlns:dc="http://purl.org/dc/elements/1.1/"
	 xmlns="http://www.w3.org/2000/svg" xmlns:xlink="http://www.w3.org/1999/xlink" x="0px" y="0px" viewBox="-285 258.3 270.7 80"
	 style="enable-background:new -285 258.3 270.7 80;" xml:space="preserve">
<style type="text/css">
	.st0{fill:#FFFFFF;}
	.st1{clip-path:url(#SVGID_2_);}
	.st2{fill:#2D51A3;}
</style>
<g id="white_x5F_text">
	<path class="st0" d="M-248.4,298.4c-4.5-2.6-9-5.2-13.6-7.8c-1.1-0.6-0.9,1.6-0.9,2.1c0.1,2.5,0,5-0.1,7.5c0,10.7,0,24.2-0.1,34.9
		c-1.8-1.1-4.2-2.1-6.1-3.2v-2.6c0-8.6,0-35.6,0-42.5l-14.8-8.5v-7.2c11.5,7,23.9,13.4,35.3,20.4L-248.4,298.4z"/>
	<path class="st0" d="M-202.8,324.9c-0.7,0.4-2.2,1.4-2.8,1.7c-1.2,0.7-2.4,1.4-3.6,2.1c-4.7,2.7-9.4,5.5-14.2,8.2
		c0-1.4,0-4.6,0-5.9c0-0.8-0.1-1.1,0.7-1.6c1.9-1.1,3.6-2.1,5.6-3.2c1.2-0.5,1.1-1.4,1-2.5c-0.1-1.2,0-2.4,0-3.7
		c0-2.6-0.1-5.3-0.1-8c0-5.4,0-10.8-0.1-16.2c0-1.3,0-2.5,0-3.7c0.1-0.9-0.4-1.4-1.2-0.9c-2.1,1-4,2.4-6.1,3.5c0-1.4,0-5.9,0-7.2
		c7-3.9,13.8-7.8,20.6-12v7.2l-6.8,4.4v34.8l1.2-0.8c2-1.2,3.8-2.3,5.7-3.4L-202.8,324.9z"/>
	<path class="st0" d="M-154,316c-1.5,0.9-3,1.8-4.5,2.6c-0.6,0.4-1.2,0.8-1.7,1.1c-0.5,0.2-1.3-1-1.6-1.3c-2.5-2.8-5-5.6-7.5-8.4
		c-2.5-2.8-5-5.6-7.5-8.4c-1.2-1.4-2.4-2.6-3.5-4c-0.5-0.6-1.7-2.6-2.7-2.5l-0.4,0.4v37l-6.1,3.9v-49.1c2.4-1.4,4.4-2.8,6.5-3.7
		c0.4-0.1,2.2,2.4,2.5,2.8c1.2,1.4,2.5,2.9,3.8,4.4c2.5,2.9,4.8,5.7,7.4,8.4c1.9,2.1,3.7,4.2,5.6,6.3c0.5,0.6,3,4.4,3.4,2.4l0.1-0.3
		c0-2.9,0-10.6,0-13.5c0-5.8,0-11.6,0-17.3c0-1.4,0-4.4,0-5.8l0.6-0.9c1.9-1.1,3.9-2.1,5.8-3.2V316z"/>
	<path class="st0" d="M-109.1,279.4c-4.7-5.7-12.2-3.9-17.8-0.9c-3,1.6-6,3.3-8.9,4.9c-1.5,0.9-3,2-4.5,2.9
		c-0.4,0.2-0.7,0.4-1.1,0.5c0.1,0.4,0,0.8,0,1.2c0,0.9,0,1.7,0,2.6c0,15.1,0.1,30.3,0.2,45.4c3-1.7,6.1-3.5,9.1-5.2
		c2.8-1.6,5.7-3.1,8.2-5c4.8-3.7,8.7-8.5,11.8-13.6c3.2-5.3,5.4-11.2,6.3-17.3C-105.3,289.6-105.5,283.6-109.1,279.4z M-112.9,301.4
		c-2.1,7.7-7,15-14,19.1c-1.9,1.2-4,2.2-5.9,3.4c-0.8,0.4-2.3,1.6-2.4-0.1c0-4.8,0-9.7,0-14.5c0-4.9-0.1-10-0.1-14.9
		c0-1.2,0-2.3,0-3.4c0.1-0.9,0.8-1.2,1.4-1.6c2.1-1.2,4.2-2.2,6.2-3.4c1.7-1,3.6-1.7,5.6-2c4.2-0.6,8,2,9.4,6
		C-111.3,293.6-111.9,297.7-112.9,301.4z"/>
	<path class="st0" d="M-92.1,336.5c0-12.7,0-25.4,0-38.2c0-3.2,0-5.9,0-9c0-0.5-0.1-1,0-1.5c0-0.4,1.3-1.2,1.6-1.4
		c8.9-4.9,17.9-10.2,26.8-15.3c0,1.9,0,3.6,0,5.6c0,1.3-0.4,1.7-1.4,2.2c-2.7,1.6-6.6,3.9-9.2,5.4l-11.5,6.7v12
		c0,0.4-0.1,1.6,0.7,1.4c1.4-0.4,0.4-0.1,1.7-0.9c5.7-3.3,14.1-8.1,19.8-11.4c0,1.4,0,4.2,0,5.7c0,1.1,0.2,1.4-0.8,2
		c-2.8,1.6-5.5,3-8.2,4.6c-4.1,2.4-8.4,4.8-12.5,7.2c-1.1,0.6-0.7,1.7-0.7,2.7c0,3.2,0,6.2,0,9.3c0,0.9-0.2,2.4,1.1,1.7
		c1.2-0.6,2.5-1.4,3.6-2.1c5.8-3.3,11.7-6.7,17.5-10c0,2.4,0,4.7,0,7.1L-92.1,336.5z"/>
	<path class="st0" d="M-21.7,310.8c-3.7,6.4-7.4,12.7-11.2,19.1c-0.1,0.3-0.3,0.6-0.4,0.8c-0.4-0.2-0.8-0.4-1.2-0.6
		c-0.8-0.4-1.6-0.9-2.4-1.3c-1.7-0.9-3.5-1.8-5.2-2.7c-3-1.5-6-2.9-7.5-5.9c-1.6-3.1-1.7-6.6-1.7-10c0-3.7,0.1-7.4,0-11.1
		c0-5.1-0.2-11.3,0.2-12.2c0.3-0.7,2-1.3,2.7-1.7c1.2-0.6,2.2-1.3,3.4-1.9c0,5.2,0.1,15.5,0,20.7c-0.1,2.4-0.1,4.9,0.4,7.3
		c0.4,2.2,1.4,3.4,3.3,4.4c2.1,1.2,4.3,2.3,6.3,3.7c0.5,0.4,1.1,0.9,1.8,0.9c0.8,0.1,1.2-1.5,1.6-2c2.4-4.4,5-8.7,7.6-13
		c1.2-1.7,1.6-3.5,1.9-5.6c0.4-1.6,0.4-3.2,0.4-4.7c0.1-3.4,0-11.9,0-15.3c0-1.7,0-3.2,0-4.8c0-0.9,0.1-1.8,0.1-2.6
		c0.1-0.6-0.1-1.7,0-2.3c0.3-0.7,1.5-1.2,2.2-1.4c1.4-0.6,2.7-1.5,4-2.2c0,1.9,0,25.4,0.1,25.4C-15.5,298.5-18.1,305.1-21.7,310.8
		L-21.7,310.8z"/>
</g>
<g id="g10" transform="matrix(1.3333333,0,0,-1.3333333,0,80)">
	<g id="g12" transform="scale(0.1)">
		<g id="g14">
			<g>
				<defs>
					<rect id="SVGID_1_" x="-1258.2" y="-1677.1" width="270.5" height="80"/>
				</defs>
				<clipPath id="SVGID_2_">
					<use xlink:href="#SVGID_1_"  style="overflow:visible;"/>
				</clipPath>
				<g id="g16" class="st1">
					<path id="path22" d="M-2026.7-1554.6l-110.7,64.6v66.6l90.3,54.3l277.9-162.7v-66.1l-19.3-11.8l-69-39.3l0,0
						c-1.9,0.7-9.2,4.3-21.9,10.7l0,0v-234.3l-72.7-43.1l0,0c-8.1-5.1-13.3-7.7-15.6-7.8l0,0l0,0c-0.2,0-0.4,0-0.8,0l0,0l0,0
						c-1.4,0.1-3,0.6-4.8,1.3l0,0l0,0c-2.1,1-4.6,2.5-7.6,4.3l0,0l0,0c-3,1.8-4.8,2.9-5.3,3.3l0,0l0,0c-1.8,1-4.4,2.6-8,4.6l0,0l0,0
						c-3.6,2-6.3,3.5-8,4.6l0,0l0,0c-1.1,0.5-3.6,1.8-7.5,3.7l0,0l0,0c-4,1.9-7.2,3.7-9.5,5.3l0,0l0,0c-2.4,1.5-4.3,3.4-5.7,5.4l0,0
						l0,0c-0.7,1.2-1.1,2.9-1.3,5l0,0l0,0c-0.2,2.1-0.2,4.6,0,7.5l0,0l0,0c0.2,2.9,0.2,4.5,0.2,4.9l0,0L-2026.7-1554.6z
						 M-2128.9-1432.1v-54l111-63.5v-338.4c4.4-2.6,11.9-6.6,22.5-11.9l0,0l0,0c10.6-5.3,18.2-9.4,23-12.2l0,0l0,0
						c0.4,53.3,0.5,140.5,0.5,261.6l0,0l0,0c0.5,16.3,0.8,30,0.8,41.2l0,0l0,0c0,5.6-0.1,10.5-0.2,14.7l0,0l0,0
						c-0.2,1.2-0.3,2.7-0.3,4.6l0,0l0,0c0,1.8,0.1,3.9,0.3,6l0,0l0,0c0.2,2.2,0.8,3.8,2,4.9l0,0l0,0c1.2,1,2.7,1,4.6,0l0,0l0,0
						c11.3-6.5,28.2-16.2,50.9-29.3l0,0l0,0c22.6-13,39.6-22.8,50.9-29.3l0,0l-0.5,52.8l0,0c-29.8,18.4-74.6,44.3-134.5,77.9l0,0
						l0,0C-2058.1-1473.5-2101.6-1448.5-2128.9-1432.1z M-1776.7-1867.6v52.5l3.2,2.2l52.5,30.7v111.8v43.5v19.4l0,0
						c0,4.6-0.8,7.5-2.3,8.7l0,0l-44.9,24.2l0,0c-0.5,0.3-1.2,0.7-2.1,1.2l0,0l0,0c-0.9,0.4-1.6,0.7-2,0.9l0,0l0,0
						c-0.4,0.1-0.9,0.4-1.5,0.9l0,0l0,0c-0.5,0.4-0.9,0.9-1.3,1.3l0,0l0,0c-0.4,0.4-0.7,1-1,1.8l0,0l0,0c-0.2,0.8-0.5,1.7-0.6,2.8
						l0,0v65.6l0,0c74.5,44.3,131.3,76.9,170.3,97.9l0,0l93-55.4v-68.2l-52.1-32.3v-182.6l52.1-31.7v-70.8l-166.7-93.7l-96.6,54.8
						V-1867.6z M-1676.7-1556.2v-54.3c1.8,1,8.2,5,19.4,11.8l0,0l0,0c11.2,6.8,19.9,11.7,26.1,14.7l0,0l0,0c3.3,1.7,5.7,1.9,7.2,0.5
						l0,0l0,0c1.5-1.4,2.1-3.9,1.7-7.6l0,0v-27.8l0,0c0.3-26.9,0.5-67.4,0.5-121.5l0,0l0,0c0-6.6,0.1-16.5,0.3-29.8l0,0l0,0
						c0.2-13.2,0.2-23.1,0.2-29.8l0,0v-27.5l0,0c0.2-3,0.3-5.6,0.3-7.8l0,0l0,0c0-2.3-0.6-4.4-1.7-6.3l0,0l0,0
						c-1.1-1.9-3.1-3.5-5.9-4.7l0,0l0,0c-11.6-5.8-25.7-13.6-42.3-23.6l0,0l0,0c-0.9-0.5-1.6-1-2.3-1.5l0,0l0,0
						c-0.6-0.4-1.1-0.9-1.4-1.6l0,0l0,0c-0.4-0.6-0.7-1-0.9-1.3l0,0l0,0c-0.2-0.3-0.4-0.8-0.5-1.6l0,0l0,0c-0.1-0.8-0.2-1.3-0.2-1.5
						l0,0l0,0c0-0.1,0-0.8,0-2.1l0,0l0,0c0-1.2,0-2,0-2.4l0,0v-44.6l0,0c47.5,27.3,83,47.7,106.5,61.3l0,0l0,0
						c3,1.8,7.5,4.4,13.4,7.8l0,0l0,0c6,3.4,10.5,6,13.5,7.8l0,0l0,0c6.9,3.8,14,8.1,21.2,12.8l0,0v53.8l0,0
						c-21.5-12.8-35.7-21.4-42.5-25.7l0,0l-9.2-6v261.3l50.7,32.8v54l0,0C-1573-1497.2-1624.4-1527.2-1676.7-1556.2z
						 M-1522.1-1876.3v370.2c0,2.1,0,3.5,0.1,4.3l0,0l0,0c0.1,0.8,0.3,1.9,0.5,3.3l0,0l0,0c0.3,1.4,0.9,2.4,1.7,3.1l0,0l0,0
						c0.9,0.7,2.1,1.4,3.5,2.1l0,0l49.4,28.6l84.8-46.4l0,0c8.1-4,13.3-7.2,15.6-9.4l0,0l0,0c6-7.7,9.8-12.4,11.4-14.2l0,0l0,0
						c6-7,14.9-17.5,26.8-31.3l0,0l0,0c11.9-13.9,20.9-24.4,26.8-31.4l0,0l0,0c-0.3,31.8-0.5,107.2-0.5,226.2l0,0l55.2,32.8l0,0
						c0.7,0.5,1.5,0.8,2.4,0.8l0,0l0,0c0.5,0,1.2-0.1,2.1-0.3l0,0l0,0c1.9-0.5,3.1-0.8,3.5-1l0,0l0,0c0.4-0.1,1.6-0.8,3.3-2.1l0,0
						l0,0c1.8-1.2,3-2,3.7-2.3l0,0l71.1-40.1l0,0c0.4-0.2,1.2-0.6,2.6-1.2l0,0l0,0c1.4-0.6,2.5-1.1,3.3-1.6l0,0l0,0
						c0.8-0.4,1.7-1,2.8-1.7l0,0l0,0c1.1-0.7,2-1.4,2.8-2.2l0,0l0,0c0.8-0.8,1.4-1.6,2-2.5l0,0l0,0c0.7-0.9,1.1-2.2,1.1-4l0,0l0,0
						c0-0.9-0.1-1.9-0.2-2.9l0,0l0,0c-0.2-1.5-0.3-2.7-0.3-3.4l0,0v-365l0,0c0-1.9,0-3.2-0.1-4l0,0l0,0c-0.1-0.8-0.4-1.7-1.1-2.6
						l0,0l0,0c-0.7-1-1.7-1.9-3.1-2.8l0,0l0,0c-3.7-2.5-9-5.7-16-9.7l0,0l0,0c-6.9-4-11.5-6.7-13.8-8.1l0,0l0,0c-2-1.2-5-3-9.2-5.4
						l0,0l0,0c-4.3-2.4-7.3-4.2-9.2-5.4l0,0l0,0c-3.6-1.6-6-2.3-7.4-2.2l0,0l0,0c-1.4,0.2-3.6,1.3-6.6,3.2l0,0l0,0
						c-3.9,2.2-9.7,5.6-17.4,10.1l0,0l0,0c-7.7,4.5-13.6,7.9-17.7,10.4l0,0l0,0c-3.5,2.1-9.7,5.6-18.5,10.4l0,0l0,0
						c-8.8,4.9-15.5,8.8-20.1,11.6l0,0l0,0c-6,3.3-10.9,7.1-14.6,11.3l0,0l-66,72.5v-221.7l0,0c-11.8-6.1-28.5-16.7-50.2-31.8l0,0
						l0,0c-3.7-1.9-6.7-2.8-8.9-2.8l0,0l0,0c-0.4,0.1-0.6,0.2-0.8,0.2l0,0l0,0c-2.3,0.3-5.3,1.8-9.2,4.3l0,0l0,0
						c-2.7,1.5-6.6,3.9-11.7,6.9l0,0l0,0c-5.2,3-8.3,4.8-9.4,5.4l0,0l0,0c-12,6.8-29.6,17-52.8,30.7l0,0l0,0
						c-5.8,3.1-9.3,6-10.6,8.7l0,0l0,0C-1521.7-1878-1521.9-1877.1-1522.1-1876.3z M-1422.8-1555.2v-368.3l46.2,29.3v277.8l3.2,2.6
						l0,0c1.8,0.2,3.7-0.5,5.9-2.2l0,0l0,0c2.2-1.7,4.1-3.5,5.7-5.3l0,0l0,0c1.6-1.8,3.3-4,5.3-6.6l0,0l0,0c2-2.5,3.2-4.1,3.7-4.6
						l0,0l0,0c2.8-3.5,7.2-8.6,13.2-15.2l0,0l0,0c6-6.7,10.4-11.6,13.2-14.9l0,0l0,0c6.3-7,15.7-17.5,28.1-31.5l0,0l0,0
						c12.4-14,21.8-24.5,28.2-31.5l0,0l0,0c13-14.7,31.8-35.6,56.2-62.7l0,0l2.9-3.4l0,0c1.8-2.3,3.4-4,5-5.2l0,0l0,0
						c1.6-1.2,2.9-1.6,4-1.1l0,0l0,0c0.9,0.5,5.2,3.2,12.9,7.9l0,0l0,0c13.4,8.2,24.5,14.9,33.5,19.9l0,0v368.1l0,0
						c-3.7-2.1-10.5-5.9-20.4-11.3l0,0l0,0c-10-5.4-17.6-9.7-22.8-12.8l0,0l-4.2-7.1v-43.5v-129.9v-101l-0.6-2.1l0,0
						c-0.5-2.8-1.6-4.3-3.4-4.3l0,0l0,0c-3.6,0-9.7,5.8-18.5,17.4l0,0l0,0c-2,2.6-3.1,4.1-3.5,4.4l0,0l0,0
						c-19.4,21.3-33.5,37.1-42.3,47.2l0,0l0,0c-8.3,9.1-26.7,30.3-55.2,63.5l0,0l0,0c-13,15-22.6,26.1-28.8,33.3l0,0l-5,6.6l0,0
						c-3.4,4.4-6.3,8-8.9,10.7l0,0l0,0c-2.6,2.8-4.2,4.1-4.9,3.7l0,0l0,0c-3.7-1.6-7.7-3.6-12-6l0,0l0,0c-4.3-2.4-8-4.6-11.2-6.4
						l0,0l0,0c-3.2-1.8-7.5-4.5-13-7.9l0,0l0,0C-1415.6-1550.8-1419.8-1553.4-1422.8-1555.2L-1422.8-1555.2z M-1155.5-1867.6
						L-1155.5-1867.6v360.5c-0.4,2.1,0.4,5.3,2.1,9.7l0,0l0,0c0.9,2.3,3.4,4.4,7.4,6.3l0,0l0,0c1.4,0.7,3.6,2,6.6,3.8l0,0l0,0
						c3,1.8,5.2,3.1,6.6,3.8l0,0l0,0c16.2,9.3,27.2,15.6,33,18.9l0,0l0,0c4.4,2.6,13.2,7.9,26.4,15.7l0,0l0,0
						c13.2,7.9,23.1,13.6,29.8,17.3l0,0l0,0c6.7,3.7,15.7,7.8,27,12.4l0,0l0,0c11.3,4.5,21.9,7.6,31.9,9.2l0,0l0,0
						c3.2,0.7,6.7,1,10.6,1l0,0l0,0c1.2,0,2.5,0,3.9,0l0,0l0,0c5.3-0.3,9.9-0.7,13.8-1l0,0l0,0c3.9-0.2,8.3-1.2,13.4-2.8l0,0l0,0
						c5-1.5,9.3-2.9,12.9-4.2l0,0l0,0c3.6-1.2,7.8-3,12.7-5.4l0,0l0,0c4.8-2.3,8.9-4.4,12.4-6.3l0,0l0,0c3.4-1.8,7.5-4.2,12.2-6.9
						l0,0l0,0c4.7-2.8,8.6-5.3,11.9-7.4l0,0l0,0c3.2-2.1,7.2-4.5,11.7-7.3l0,0l0,0c4.6-2.8,8.5-5.2,11.6-7.1l0,0l0,0
						c6.9-3.9,11.6-6.6,14.1-8.1l0,0l0,0c2.6-1.6,6.5-4.1,11.9-7.6l0,0l0,0c5.4-3.5,9.8-6.9,13.4-10.4l0,0l0,0
						c3.5-3.4,6.8-7.1,9.8-10.9l0,0l0,0c11.6-16.1,18.8-34.9,21.6-56.4l0,0l0,0c1.4-9.9,2.2-20.1,2.4-30.4l0,0l0,0
						c0-36.2-9.1-75.6-27.2-118.3l0,0l0,0c-20.8-47.9-48-88.6-81.7-122l0,0l0,0c-4.9-4.9-10-9.6-15.4-14.2l0,0l0,0
						c-5.4-4.5-11.4-9.1-17.9-13.7l0,0l0,0c-6.5-4.6-12.1-8.6-16.8-11.9l0,0l0,0c-4.7-3.2-11-7.2-19-11.9l0,0l0,0
						c-8-4.7-13.9-8.2-17.6-10.4l0,0l0,0c-3.7-2.2-10.2-5.9-19.5-11.2l0,0l0,0c-9.3-5.2-15.4-8.6-18.3-10.2l0,0l0,0
						c-0.8-0.5-6.2-3.4-16.1-8.8l0,0l0,0c-9.9-5.3-17.2-9.6-21.9-12.7l0,0l0,0c-1.4-1-2.7-1.9-3.8-2.5l0,0l0,0
						c-1.2-0.6-2.3-0.9-3.5-1l0,0l0,0c-1.2-0.1-2.2-0.1-2.9-0.1l0,0l0,0c0,0-0.1-0.1-0.2-0.3l0,0l0,0c-0.7-0.1-1.6,0.1-2.7,0.8l0,0
						l0,0c-1.4,0.7-2.3,1.2-2.9,1.4l0,0l0,0c-0.6,0.2-1.7,0.9-3.4,2.1l0,0l0,0c-1.8,1.1-3,2-3.7,2.5l0,0l0,0
						c-9.5,5.4-22.9,13.1-40.3,23.1l0,0l0,0c-17.4,9.9-28.4,16.3-33.1,19.2l0,0l0,0C-1154.4-1879.7-1155.5-1875.1-1155.5-1867.6
						L-1155.5-1867.6z M-1061.4-1559.3v-19.4c0-75.9,0.3-189.4,1.1-340.5l0,0l0,0c7.6,4.4,18.9,10.9,34,19.6l0,0l0,0
						c15.2,8.8,26.6,15.2,34.1,19.5l0,0l0,0c30.4,17,51.1,29.6,61.8,37.8l0,0l0,0c33.5,25.2,62.8,59.2,87.9,102l0,0l0,0
						c25.2,42.2,41,85.5,47.3,129.9l0,0l0,0c1.4,11.2,2.1,21.9,2.1,32l0,0l0,0c0,35.1-8.5,62.8-25.4,83.1l0,0l0,0
						c-8.4,10.3-18.3,17.7-29.5,22.3l0,0l0,0c-9.2,3.7-18.7,5.5-28.6,5.5l0,0l0,0c-2.1-0.2-4.2-0.3-6.4-0.3l0,0l0,0
						c-12.1-1-23.8-3.3-34.9-6.6l0,0l0,0c-11.2-3.4-22.7-8.1-34.3-14.1l0,0l0,0c-5.5-2.8-27.8-15.1-67.1-36.9l0,0l0,0
						c-1.4-0.9-6.2-4.1-14.5-9.5l0,0l0,0c-8.3-5.4-14.8-9.5-19.5-12.1l0,0l0,0c-3.4-2.1-6.1-3.3-8.2-3.7l0,0L-1061.4-1559.3z
						 M-1014.9-1607.6L-1014.9-1607.6v25.7c0.3,2.1,1.2,3.9,2.5,5.5l0,0l0,0c1.3,1.5,2.4,2.7,3.5,3.4l0,0l0,0
						c0.9,0.7,2.6,1.7,4.9,2.9l0,0l0,0c1.2,0.7,7.8,4.2,19.7,10.6l0,0l0,0c11.9,6.4,20.8,11.5,26.8,15.1l0,0l0,0
						c13.9,8.2,28,13.3,42.2,15.1l0,0l0,0c3.4,0.5,6.6,0.8,9.8,0.8l0,0l0,0c11.8-0.1,22.8-3.6,33.1-10.2l0,0l0,0
						c13-8.4,22.2-20.1,27.4-35.1l0,0l0,0c3.7-10.7,5.6-22.6,5.6-35.7l0,0l0,0c0-15.4-2.6-32.6-7.7-51.4l0,0l0,0
						c-8.1-29.8-21.2-57.4-39.4-82.9l0,0l0,0c-18.1-25.6-40-45.8-65.5-60.6l0,0l0,0c-5.3-3.5-13.1-8.1-23.4-13.7l0,0l0,0
						c-10.3-5.6-17.3-9.5-21-11.6l0,0l0,0c-0.6-0.3-1.5-0.9-2.8-1.6l0,0l0,0c-1.4-0.7-2.5-1.3-3.3-1.9l0,0l0,0c-0.9-0.5-2-1-3.3-1.6
						l0,0l0,0c-1.3-0.5-2.4-0.7-3.3-0.7l0,0l0,0c-0.9,0-1.7,0.1-2.5,0.4l0,0l0,0c-0.8,0.2-1.5,0.9-2,2.1l0,0l0,0
						c-0.5,1.1-0.8,2.6-0.8,4.3l0,0v109.2l0,0c0,12.4-0.1,31-0.3,55.8l0,0l0,0C-1014.8-1638.6-1014.9-1620-1014.9-1607.6
						L-1014.9-1607.6z M-1006.1-1583.7L-1006.1-1583.7L-1006.1-1583.7c-0.2-1.2-0.4-2.2-0.4-3.1l0,0l0,0c0-0.9,0.1-2.2,0.2-4l0,0
						l0,0c0.1-1.8,0.2-3.3,0.2-4.3l0,0l0,0c0-11.5,0.1-29.1,0.2-52.5l0,0l0,0c0.2-23.4,0.3-40.9,0.3-52.5l0,0v-18.1l0,0
						c21.5,19.1,39.7,45.7,54.6,80l0,0l0,0c11.6,26.9,17.4,50.4,17.4,70.6l0,0l0,0c0,8.4-1,16.1-2.9,23.4l0,0l0,0
						c-12-5.1-26.9-13-44.9-23.7l0,0l0,0c-7.8-4.2-14.3-7.6-19.5-10.2l0,0l0,0c-1.4-0.7-2.6-1.5-3.5-2.4l0,0l0,0
						C-1005.2-1581.5-1005.8-1582.5-1006.1-1583.7z M-793.5-1868.9L-793.5-1868.9v367.5l4.2,5.5l0,0c64.6,36.9,107,61.2,127.1,72.9
						l0,0l0,0c2.8,1.6,11.9,6.8,27.3,15.5l0,0l0,0c15.4,8.8,27.2,15.6,35.6,20.4l0,0l0,0c3.7,1.9,9.6,5.3,17.7,10.2l0,0l0,0
						c0.3,0.2,1.7,1,4,2.5l0,0l0,0c2.3,1.5,4.3,2.6,5.9,3.4l0,0l0,0c1.7,0.8,3.2,1.2,4.4,1.2l0,0l0,0c1.2,0,2.3-0.1,3.1-0.4l0,0l0,0
						c0.8-0.3,1.7-0.8,2.7-1.6l0,0l0,0c1.1-0.8,2-1.4,2.7-1.7l0,0l0,0c25.5-15.4,51.5-29.8,77.9-43.1l0,0l0,0
						c4.4-2.1,7.3-4.3,8.7-6.6l0,0l0,0c1.4-2.2,2.1-5.6,2.1-10.2l0,0v-47.8l0,0c-0.3-4.4-1.1-7.5-2.2-9.4l0,0l0,0
						c-1.2-1.9-3.5-3.8-7-5.5l0,0l0,0c-7.2-4-19.2-11-35.8-20.9l0,0l0,0c-16.6-9.8-27.9-16.5-33.9-20l0,0l0,0c6-3.5,16-9.1,30-16.7
						l0,0l0,0c14-7.6,24.6-13.5,31.8-17.7l0,0l0,0c0.3-0.2,2.3-1.2,5.9-2.9l0,0l0,0c3.7-1.7,6.4-3.4,8.1-4.9l0,0l0,0
						c1.8-1.6,2.8-3.4,3.2-5.5l0,0v-63l0,0c-9.5-7-24.1-16-43.7-26.9l0,0l0,0c-19.6-10.9-31.4-17.6-35.2-19.9l0,0l78.4-45.1v-67.7
						l-148.2-85.5l0,0c-38.9-22.4-64.8-36.9-77.5-43.5l0,0l-93,53.2l0,0C-792.1-1880.9-793.5-1876.3-793.5-1868.9z M-691.3-1637.8
						v-286.5l212.7,122v53.2c-73.1-41.9-116.9-67-131.5-75.3l0,0l0,0c-14.1-8.4-23.2-13.5-27.3-15.4l0,0l0,0
						c-1.4-0.7-2.6-1.1-3.5-1.2l0,0l0,0c-0.9-0.1-1.7,0.1-2.3,0.5l0,0l0,0c-0.5,0.4-0.9,1-1.3,1.6l0,0l0,0c-0.4,0.6-0.6,1.6-0.7,2.8
						l0,0l0,0c-0.1,1.2-0.2,2.3-0.3,3.1l0,0l0,0c-0.1,0.7-0.1,1.8,0,3.3l0,0l0,0c0.1,1.4,0.2,2.3,0.2,2.8l0,0v69.8l0,0
						c0,1.1-0.1,2.6-0.3,4.6l0,0l0,0c-0.2,2-0.2,3.6-0.2,4.9l0,0l0,0c0,1.2,0.1,2.6,0.4,4l0,0l0,0c0.3,1.5,0.9,2.8,1.7,4l0,0l0,0
						c0.9,1.1,2.1,2.2,3.7,3.1l0,0l0,0c10.4,5.9,26.1,14.9,46.9,26.9l0,0l0,0c20.9,12,36.5,20.9,46.9,26.9l0,0l0,0
						c6.2,3.5,12.7,7.2,19.5,10.9l0,0l0,0c6.8,3.8,14.3,8,22.5,12.6l0,0l0,0c8.3,4.6,14.9,8.3,19.6,10.9l0,0l0,0
						c1.6,0.8,2.7,1.6,3.4,2.4l0,0l0,0c1.1,0.7,1.8,1.6,2.1,2.6l0,0l0,0c0.6,1.4,0.8,2.5,0.8,3.4l0,0l0,0c-0.2,0.5-0.3,1.3-0.3,2.4
						l0,0l0,0c0,2.1,0,3.5,0,4.2l0,0v42.5l0,0c-14.2-8.2-39-22.4-74.2-42.6l0,0l0,0c-35.2-20.2-59.9-34.5-74.2-42.7l0,0l0,0
						c-2.7-1.5-4.5-2.9-5.6-4l0,0l0,0c-0.6-0.5-2-1.1-4.2-1.8l0,0l0,0c-1.2-0.3-2.3-0.6-3.2-0.8l0,0l0,0c-0.8-0.2-1.6-0.2-2.2-0.2
						l0,0l0,0c-0.6,0-1.1,0.3-1.4,0.9l0,0l0,0c-0.3,0.6-0.6,1.1-0.8,1.6l0,0l0,0c-0.2,0.4-0.3,1.1-0.3,2l0,0l0,0c0,0.8,0,1.6,0,2.2
						l0,0l0,0c0,0.6,0,1.4,0,2.2l0,0l0,0c0,0.7,0,1.3,0,1.6l0,0v89.8l85.9,50.4l0,0c11.6,6.5,34.8,19.9,69.4,40.4l0,0l0,0
						c4.1,1.9,6.9,4.1,8.5,6.3l0,0l0,0c1.6,2.2,2.3,5.7,2.3,10.4l0,0v41.7l0,0c-13.5-7.7-34.4-19.7-62.6-36l0,0l0,0
						c-28.2-16.4-53.2-30.8-75.1-43.3l0,0l0,0c-21.9-12.5-43-24.2-63.1-35.1l0,0l0,0c-7.9-5.9-11.9-9.5-11.9-10.7l0,0v-11.3
						L-691.3-1637.8z M-479.4-1547L-479.4-1547v44.6c0,3.1,1.2,5.9,3.7,8.3l0,0l0,0c2.4,2.3,6.6,4.9,12.5,7.8l0,0l0,0
						c5.9,2.8,8.9,4.3,9.1,4.4l0,0l0,0c2.2,1.2,5.3,3.1,9.5,5.7l0,0l0,0c4.2,2.5,7.4,4.4,9.5,5.6l0,0l0,0c0.2,0.2,1.6,1.1,4.3,2.8
						l0,0l0,0c2.6,1.7,4.9,3,6.8,3.8l0,0l0,0c1.9,0.9,3.6,1.2,5,1l0,0l0,0c1.6-0.4,3.3-1,5.1-2.1l0,0l0,0c1.9-1,3.9-2.3,6.1-3.9l0,0
						l0,0c2.2-1.6,3.8-2.7,4.9-3.2l0,0l0,0c2-1,4.9-2.7,8.7-5.1l0,0l0,0c3.9-2.4,6.8-4.1,8.7-5.2l0,0l0,0
						c4.2-2.4,10.6-6.1,19.2-10.9l0,0l0,0c8.6-4.8,14.9-8.5,19.2-11.1l0,0l0,0c5.5-2.6,9.6-5,12.4-7.1l0,0l0,0
						c0.7-0.3,1.3-0.7,1.9-1.2l0,0l0,0c0.6-0.4,1-0.9,1.4-1.4l0,0l0,0c0.3-0.5,0.6-1,0.8-1.4l0,0l0,0c0.2-0.4,0.3-1.1,0.4-1.9l0,0
						l0,0c0.1-0.8,0.1-1.4,0-1.7l0,0l0,0c-0.1-0.3-0.1-1-0.1-2.1l0,0l0,0c0-1,0-1.7,0-2.1l0,0v-123.1l0,0c0-4.7,0.1-12.1,0.4-22l0,0
						l0,0c0.2-10,0.4-17.4,0.4-22.1l0,0l0,0c0-19.6,0.3-32.2,1.1-38l0,0l0,0c3.7,6.5,9.5,16,17.4,28.7l0,0l0,0
						c7.8,12.6,14.7,24,20.6,34.2l0,0l0,0c5.9,10.1,11.1,19.9,15.7,29.4l0,0l0,0c4.6,9.3,8.2,19,11,29.3l0,0l0,0
						c2.7,10.2,4.5,21.3,5.4,33.2l0,0l0,0c1.1,11.7,1.6,21.8,1.6,30.4l0,0l0,0c0,1.4,0,2.9,0,4.4l0,0l0,0c0,7.9-0.2,17.7-0.5,29.4
						l0,0l0,0c-0.3,14-0.6,24.4-0.8,31.3l0,0v82.3l0,0c0,1.1-0.1,3.5-0.2,7.2l0,0l0,0c-0.2,3.8-0.3,6.7-0.3,8.7l0,0l0,0
						c0,2,0.5,4.4,1.5,7.1l0,0l0,0c0.9,2.7,2.5,4.9,4.6,6.4l0,0l0,0c2.5,1.9,5.3,3.8,8.5,5.7l0,0l0,0c3.2,1.8,6.8,3.8,11,5.7l0,0
						l0,0c4.1,2,7.1,3.7,9.1,4.9l0,0l0,0c1.4,0.7,3.4,1.9,5.9,3.7l0,0l0,0c2.6,1.8,4.7,3.2,6.3,4.3l0,0l0,0c1.7,1,3.9,2.3,6.8,3.7
						l0,0l0,0c2.3,1,4.2,1.6,5.6,1.6l0,0l0,0c0.2,0,0.4,0,0.8,0l0,0l0,0c1.8-0.3,4-1,6.6-1.9l0,0l0,0c7.1-3.7,18.1-10.2,33.1-19.6
						l0,0l0,0c15-9.4,26.7-16.1,35.1-20.3l0,0l0,0c0.2-0.2,1.3-0.8,3.4-1.7l0,0l0,0c2.1-0.9,3.3-1.5,3.5-1.7l0,0l0,0
						c0.3-0.1,1.2-0.7,2.8-1.7l0,0l0,0c1.6-0.9,2.5-1.7,2.8-2.3l0,0l0,0c0.3-0.6,0.8-1.5,1.6-2.6l0,0l0,0c0.8-1.1,1.2-2.4,1.4-3.7
						l0,0l0,0c0.1-1.3,0.1-2.7,0.1-4.3l0,0l0,0c-0.3-7.5-0.5-18.8-0.5-33.8l0,0v-122.5l0,0c0-1,0-5,0-11.8l0,0l0,0
						c0-6.8,0-11.1,0-12.8l0,0l0,0c0-1.8-0.1-5.5-0.2-11.2l0,0l0,0c-0.1-5.7-0.3-9.9-0.5-12.7l0,0l0,0c-0.2-2.8-0.6-6.6-0.9-11.2
						l0,0l0,0c-0.3-4.6-0.8-8.9-1.5-12.7l0,0l0,0c-0.6-3.9-1.4-7.7-2.2-11.6l0,0l0,0c-8.3-34.5-22.2-67.3-41.7-98.4l0,0l0,0
						c-1.6-4-3.7-8.2-6.2-12.6l0,0l0,0c-2.6-4.4-5.6-9.2-9.1-14.4l0,0l0,0c-3.5-5.3-6.1-9.3-7.9-12.1l0,0l0,0
						c-4.3-6.3-8.7-13.4-13.4-21.1l0,0l0,0c-4.7-7.8-8.5-14.3-11.5-19.4l0,0l0,0c-3-5.2-7.2-12.7-12.6-22.6l0,0l0,0
						c-5.4-9.9-9.1-16.6-11.2-20.3l0,0l0,0c-1.4-2.4-3.6-6.1-6.5-11l0,0l0,0c-2.9-4.9-5.1-8.5-6.5-11l0,0l0,0
						c-0.4-0.5-0.8-1.3-1.4-2.4l0,0l0,0c-0.6-1-1.1-1.9-1.6-2.5l0,0l0,0c-0.4-0.6-1-1.3-1.7-2l0,0l0,0c-0.7-0.7-1.3-1.2-1.9-1.4l0,0
						l0,0c-0.7-0.2-1.4-0.4-2.4-0.4l0,0l0,0c-0.9,0-2.1,0.2-3.3,0.7l0,0l0,0c-5.6,2.6-19.5,10-41.7,22l0,0l0,0
						c-39.3,19.9-69.2,36-89.9,48.3l0,0l0,0c-2.8,1.6-7,4.1-12.6,7.4l0,0l0,0c-5.5,3.3-10.5,6.2-14.9,8.7l0,0l0,0
						c-4.4,2.4-8.6,4.6-12.7,6.6l0,0l0,0c-2,0.7-4.2,1.8-6.8,3.4l0,0l0,0c-2.7,1.6-5.4,3.4-8.3,5.4l0,0l0,0c-2.9,2-4.6,3.2-5.2,3.6
						l0,0l0,0c-10.4,7.4-18.9,20.8-25.6,40.4l0,0l0,0c-0.8,2.6-1.7,5.3-2.5,7.9l0,0l0,0c-0.8,2.6-1.4,5.5-1.9,8.7l0,0l0,0
						c-0.6,3.1-1.1,5.7-1.5,7.6l0,0l0,0c-0.4,1.9-0.8,4.7-0.9,8.4l0,0l0,0c-0.2,3.7-0.4,6.2-0.5,7.6l0,0l0,0
						c-0.2,1.4-0.3,4.3-0.4,8.7l0,0l0,0c-0.1,4.4-0.2,7-0.2,7.8l0,0l0,0c0,0.8,0,3.7,0,8.8l0,0l0,0c0,5.1,0,7.8,0,8.1l0,0l0,0
						C-478.9-1606.2-479.1-1565.5-479.4-1547L-479.4-1547z M-385.9-1567.5L-385.9-1567.5L-385.9-1567.5c0-2.8,0-6.1,0-9.9l0,0l0,0
						c0-7.7,0.1-17.4,0.3-29.2l0,0l0,0c0.2-17.7,0.2-29.8,0.2-36.4l0,0v-83.4l0,0c0-10.7,0.2-19.4,0.5-26.1l0,0l0,0
						c0.3-6.7,1.5-14.7,3.5-24l0,0l0,0c1.9-9.3,4.8-17.5,8.5-24.6l0,0l0,0c4.8-9.7,11.3-17.5,19.5-23.5l0,0l0,0
						c8.3-6,19-12.4,32.2-19l0,0l0,0c1.9-0.8,3.4-1.5,4.4-2.1l0,0l38.8-19.7l0,0c2-1,4.9-2.7,8.9-4.9l0,0l0,0c4-2.2,7-3.8,9.1-4.9
						l0,0l0,0c0.6-0.1,3.6-1.6,9.2-4.4l0,0l0,0c0.3,0.5,1.4,2.5,3.2,6l0,0l0,0c3.5,6,15.7,26.6,36.5,61.9l0,0l0,0
						c20.9,35.3,36.7,62.3,47.5,81l0,0l0,0c31,49,46.4,96.7,46.4,143.1l0,0l0,0c-0.3,0-0.5,63.4-0.5,190.1l0,0l0,0
						c-2.1-1-6.6-3.7-13.6-7.8l0,0l0,0c-7-4.2-12.4-7.2-16.2-9l0,0l0,0c-9.5-4.2-14.9-7.8-16.1-10.7l0,0l0,0
						c-0.4-1.4-0.4-4.2-0.1-8.5l0,0l0,0c0.2-4.3,0.3-7.1,0.1-8.5l0,0l0,0c0-2.1-0.1-5.4-0.3-9.7l0,0l0,0c-0.2-4.4-0.3-7.8-0.3-10.3
						l0,0v-35.9v-114.6l0,0c0-13.3-1.1-25.1-3.4-35.4l0,0l0,0c-3.2-18.4-8.1-32.4-14.6-42l0,0l0,0c-31.7-53.7-50.6-86-56.7-97l0,0
						l0,0c-0.6-0.7-1.5-2.5-2.8-5.5l0,0l0,0c-1.3-3-2.8-5.4-4.3-7.4l0,0l0,0c-1.4-1.9-3.1-2.7-4.9-2.3l0,0l0,0
						c-1.1,0.1-2.1,0.4-3,0.7l0,0l0,0c-0.9,0.2-2,0.7-3.1,1.3l0,0l0,0c-1.1,0.6-1.9,1.1-2.5,1.6l0,0l0,0c-0.6,0.4-1.5,1.1-2.6,2l0,0
						l0,0c-1.2,0.8-1.9,1.4-2.2,1.6l0,0l0,0c-5.6,4-14.4,9.3-26.3,15.7l0,0l0,0c-11.9,6.5-18.9,10.3-21,11.5l0,0l0,0
						c-7.2,4.2-12.8,8.8-16.7,13.8l0,0l0,0c-3.9,5-6.6,11.5-8.2,19.6l0,0l0,0c-1.9,9.3-2.8,22.4-2.8,39.3l0,0l0,0
						c0,4.9,0.1,10.1,0.2,15.5l0,0l0,0c0.2,11.7,0.3,27.1,0.3,46.1l0,0l0,0c0,19.1-0.1,40.1-0.2,63l0,0l0,0
						c-0.1,22.9-0.2,38.3-0.2,46.2l0,0l0,0c-2.8-1.6-7-4-12.7-7.2l0,0l0,0c-5.6-3.2-9.8-5.6-12.6-7.2l0,0l0,0
						c-0.6-0.3-2.7-1.3-6.4-2.8l0,0l0,0c-3.7-1.6-6.7-3.2-9.1-4.8l0,0l0,0c-2.4-1.5-3.9-3.1-4.7-4.7l0,0l0,0
						C-385.4-1553.6-385.9-1559.1-385.9-1567.5"/>
				</g>
			</g>
		</g>
		<path id="path24" class="st2" d="M-2047.1-1369.1l-90.4-54.3v-66.6l110.9-64.5l0.6-319.2c0-4.3-1.7-12.8,1.1-17.2
			c4.9-7,15.2-10.2,22.7-14.5c5.4-3.3,10.8-6,16.2-9.2c4.9-2.7,13-9.6,18.4-9.1c5.4,0.5,11.3,5.4,15.7,8.1l72.5,43v234.3
			c5.9-3.2,15.7-8.6,22.2-10.7l68.7,39.3l19.5,11.8v66.1L-2047.1-1369.1z M-1863.2-1637.8c-34.1,19.3-67.6,39.3-101.7,58.6
			c-8.1,4.3-7-11.8-6.5-15.6c0.5-18.8,0-37.6-0.5-55.9c0-80,0-181.6-0.6-261.6c-13.5,8.1-31.3,16.1-45.4,24.2v19.9
			c0,64.5,0,267.1,0,318.7l-110.9,63.4v54.3c86-52.2,179.6-100.5,265.1-153.1L-1863.2-1637.8z M-1513.1-1772.6l-51.9,31.7v182.7
			l51.9,32.2v68.2l-93,55.4c-55.2-29.6-118-66.6-170.4-97.8v-65.5c1.1-6.4,3.8-6.4,8.6-9.1l44.9-24.2c2.7-2.2,2.1-5.4,2.1-8.7
			c-0.5-6.4,0-12.8,0-19.3c0-14.5,0-29,0-43.5v-111.8l-52.4-30.6l-3.2-2.2c0-14.5,0-38.1,0-52.6v-14.6l96.9-54.8l166.6,93.5V-1772.6
			z M-1521.3-1836.6c-4.9-3.2-16.2-10.2-21.1-12.9c-9.2-5.4-17.8-10.1-27.1-15.5c-35.2-20.4-70.9-40.9-106.6-61.3
			c0,10.2,0,34.4,0,44.6c0,6-0.5,8.1,5.4,11.9c14.6,8.6,27,16.1,42.2,23.7c8.6,3.7,8.1,10.1,7.5,18.8c-0.5,9.1,0,18.2,0,27.4
			c0,19.9-0.5,39.8-0.5,59.6c0,40.8,0,81.1-0.5,121.4c0,9.7,0,18.8,0,28c0.5,6.9-2.7,10.8-9.2,6.9c-15.7-7.5-30.4-17.7-45.5-26.3
			c0,10.2,0,44.1,0,54.3c52.4,29,103.3,58.5,154.2,89.7v-54.3l-50.9-32.8v-261.2l9.2,6c14.7,9.1,28.2,17.2,42.8,25.7L-1521.3-1836.6
			z M-1146.8-1392.8c-2.7,4.9-9.2,7-13.5,9.2l-70.9,40.3c-5.4,3.2-8.6,6.9-15.1,4.9l-55.2-32.8c0-74.1,0-178.4,0.6-226.2
			c-17.9,21-35.8,41.9-53.6,62.9c-3.8,4.3-7.6,9.1-11.3,14c-4.4,4.3-10.3,6.9-15.7,9.6l-85,46.3l-49.2-28.5c-5.9-2.7-5.9-7-5.9-12.9
			v-352.5c0-5.9-0.5-12.4,0-17.8c1.1-5.9,6.5-8.6,11.3-11.3c17.4-10.2,35.2-20.4,53.1-30.6c7-4.3,14.6-8.1,21.1-12.4
			c7-4.9,11.3-6.4,18.9-1.6c14.1,9.6,34.6,23.6,50.3,31.6v221.9l66.1-72.5c3.8-4.3,9.7-8.6,14.6-11.3c12.5-7.5,25.4-14.6,38.4-22
			c11.9-7,23.3-13.4,35.2-20.4c5.4-3.2,8.1-4.9,14.1-1c6,3.7,12.5,6.9,18.4,10.8c9.8,5.9,20.1,11.3,29.8,17.7
			c4.4,2.7,4.4,4.9,4.4,9.7c0,121.9,0,243.4,0,364.9C-1146.3-1399.2-1145.3-1395.5-1146.8-1392.8L-1146.8-1392.8z M-1154.9-1769.9
			c-11.4-6.4-22.8-13.4-33.6-19.9c-4.3-2.7-8.6-6-13-8.1c-3.8-1.6-9.7,7.5-11.9,9.6c-18.9,21-37.9,41.9-56.3,62.9
			c-18.9,20.9-37.3,41.9-56.3,62.8c-8.6,10.2-17.8,19.9-26.5,30.1c-3.8,4.3-13,19.3-20.6,18.8l-3.2-2.7V-1894l-46-29.6v368.6
			c17.8,10.7,33,21,48.7,27.9c2.7,1.1,16.2-17.7,18.9-20.9c9.2-10.7,18.9-22.1,28.6-33.4c18.4-21.5,36.3-42.5,55.2-63.4
			c14.1-16.1,28.1-31.7,42.2-47.3c3.8-4.3,22.8-32.8,25.5-17.8l0.5,2.2c0,21.5,0,79.6,0,101c0,43.5,0,87,0,130c0,10.2,0,33.4,0,43.5
			l4.4,7c14.1,8.6,29.2,16.1,43.3,24.2V-1769.9z M-786-1550.7c-2.7,19.9-9.8,39.7-21.6,56.4c-12.5,16.6-31.4,26.9-49.2,37
			c-39,23.1-78.4,54.3-127.1,47.3c-42.8-7-78.4-33.9-115.3-54.8c-10.8-6-21.6-12.4-33-18.8c-4.4-2.2-8.6-5.4-13-7.5
			c-3.2-1.6-5.9-2.7-7.6-6.5c-1.1-2.7-2.7-6.4-2.1-9.6c0-137.5,0-233.2,0-360.5c0-3.8-0.6-10.7,3.2-13.4
			c24.3-14,48.7-28.5,73.6-42.5c9.8-5.9,13-9.7,23.3-2.7c11.9,8.1,25.4,14.5,37.9,21.5c43.3,24.7,88.1,47.8,124.4,83.3
			c34.6,34.4,62.2,76.8,81.7,121.9C-791.4-1653.4-778.4-1601.2-786-1550.7L-786-1550.7z M-794.6-1610.4
			c-6.5-46.2-23.3-90.2-47.1-130c-22.7-38.7-51.9-74.7-88.1-102.1c-18.9-14.5-40.6-25.8-61.7-37.6c-22.7-12.9-45.5-26.3-68.2-39.3
			c-0.5,113.4-1.1,227.3-1.1,340.7c0,6.5,0,12.9,0,19.3c0,2.7,0.6,5.4,0,8.7c2.7,0.5,5.4,2.1,8.1,3.7c11.9,6.4,22.8,14.5,34.1,21.5
			c22.2,12.4,44.3,25.2,67.1,37.1c42.2,22,98.4,36,133.6-7C-791.4-1527.1-789.8-1571.7-794.6-1610.4z M-914.8-1529.2
			c-15.1-2.2-29.2-7.5-42.2-15.1c-15.2-9.1-30.9-17.2-46.5-25.8c-4.9-2.7-9.8-5.4-10.8-11.8c0-8.6,0-17.2,0-25.8
			c0-37,0.5-74.6,0.5-111.7c0-36.6,0-73.1,0-109.1c0.5-12.9,11.9-4.3,17.8-1c14.7,8.6,30.3,16.1,44.4,25.2
			c52.4,30.7,89.3,86,105,143.5c7.5,27.9,11.9,59.1,2.1,87C-854.7-1544.3-883.4-1524.4-914.8-1529.2L-914.8-1529.2z M-1005.1-1700.1
			c0,34.9-0.5,69.8-0.5,104.8c0,7.5-2.2,13.4,5.4,17.2c6.5,3.3,13,6.5,19.5,10.2c14.6,8.6,29.2,17.2,44.9,23.7
			c8.6-31.2-2.2-65.5-14.7-94c-13-29.6-30.3-58.6-54.6-80.1C-1005.1-1711.9-1005.1-1706-1005.1-1700.1L-1005.1-1700.1z M-470-1739.3
			l-78.4,45.1c26.5,16.1,54.6,29,79,46.8v62.8c-1.1,7-11.9,10.2-17.3,13.4c-20.1,11.8-41.2,22.5-61.7,34.4
			c20.5,11.8,49.7,29.6,69.8,40.8c7,3.7,8.6,6.4,9.2,15.1v47.8c0,9.2-2.2,12.4-10.8,16.7c-24.3,12.3-54.6,29-77.9,43
			c-3.8,2.1-4.3,3.7-8.6,3.7s-10.3-4.8-14.1-7c-5.9-3.7-11.9-6.9-17.9-10.2c-21.1-12.4-42.2-24.2-62.7-36
			c-42.2-24.7-84.9-48.9-127.1-73.1l-4.4-5.4v-367.5c0-4.3,0.6-11.3,4.4-14l93-53.2c26,13.4,51.4,28.5,77.4,43.5L-470-1807
			L-470-1739.3z M-690.8-1924.1c0,95.1,0,190.7,0,286.3c0,23.7,0,44.6,0,67.7c0,3.8-0.5,7.5,0,11.3c0,2.7,9.8,9.1,11.9,10.7
			c67,36.5,134.1,76.3,200.7,114.4c0-14.5,0-26.9,0-41.9c0-9.7-3.2-12.9-10.8-16.7c-20.1-11.8-49.2-29-69.3-40.3l-86-50.4v-89.8
			c0-3.2-1.1-12.3,4.9-10.2c10.8,3.3,3.2,0.6,13,6.5c42.8,24.7,105.5,60.7,148.3,85.4c0-10.7,0-31.7,0-42.5c0-8.1,1.6-10.2-5.9-15.1
			c-21.1-11.8-41.2-22.5-61.7-34.4c-30.9-17.7-62.7-36-93.6-53.7c-8.1-4.3-5.4-12.8-5.4-20.4c0-23.7,0-46.8,0-69.9
			c0-6.5-1.6-17.8,8.1-12.9c9.2,4.3,18.4,10.2,27.1,15.6c43.8,24.7,87.7,49.9,131.5,75.2c0-18.3,0-35.4,0-53.2L-690.8-1924.1z
			 M-123.2-1378.7c-23.8,11.8-44.9,27.4-68.2,39.7c-10.3,6-22.8-5.9-31.9-11.3c-9.2-5.4-20.6-9.6-28.7-16.1
			c-8.6-6.4-5.4-20.4-5.4-29.6c0-15,0-67.2,0-82.2c0-52.7,7.6-109.1-16.8-158c-15.7-31.7-35.7-61.8-53.6-92.5
			c-1.6,12.9-1.1,25.8-1.1,38.2c0,14.5-0.5,29.6-0.5,44c0,28.5,0,94.6,0,123.1c0,5.4,1.1,9.1-4.3,11.8c-3.8,2.7-8.1,4.9-12.4,7
			c-13,7.5-25.5,14.5-38.5,22c-5.9,3.2-11.3,7-17.3,10.2c-4.9,2.7-10.8,8.1-16.2,9.1c-4.9,0.5-12.5-5.4-16.2-7.5
			c-6.5-3.7-12.5-7.5-18.9-11.3c-8.1-4.9-25.4-9.6-25.4-20.4c0-15.1,0-29.6,0-44.6c0.5-27.9,0.5-94,0.5-121.9
			c0-25.8-0.5-49,8.1-73.7c4.9-14,12.4-31.1,25.4-40.3c4.3-2.7,14.1-9.6,20.6-12.3c13.5-6.5,26.5-15.1,40.1-22.6
			c29.2-17.2,59.5-32.8,89.8-48.4c14.1-7.5,27.6-15.6,41.6-22c7.1-3.2,9.2,3.2,12.5,8.1c4.3,7.5,8.6,14.5,13,22
			c15.6,28,30.8,56.4,48.7,83.3c7.5,12.9,17.8,25.8,23.2,39.3c18.9,30.1,33.6,64,41.7,98.3c5.9,28,5.4,55.4,5.4,83.9
			c0,28.4,0,94,0,122.5c0,11.3,0,22.6,0.5,33.9C-107-1385.2-114.6-1383.1-123.2-1378.7z M-162.8-1730.7
			c-27.6-47.8-55.7-95.1-83.9-143c-1.1-2.1-2.1-4.3-3.2-5.9c-3.2,1.6-5.9,3.2-9.2,4.3c-5.9,3.2-11.9,6.4-17.9,9.6
			c-13,6.5-25.9,13.4-38.9,19.9c-22.2,11.3-44.9,21.5-56.3,44.6c-11.9,23.1-12.5,49.5-12.5,74.7c0,27.4,0.6,55.4,0,83.3
			c0,38.1-1.6,84.4,1.1,91.9c2.2,5.4,15.1,9.7,20,12.4c8.6,4.9,16.8,9.7,25.5,14.5c0-39.2,0.5-116,0-155.2
			c-0.6-18.3-1.1-37.1,2.7-54.9c3.2-16.6,10.8-25.2,24.9-33.3c15.7-9.2,32.5-17.2,47-27.4c3.8-2.7,8.1-6.5,13.5-7
			c5.9-1,9.3,11.3,11.9,15.1c18.3,32.8,37.9,65,56.8,97.2c8.6,12.9,11.9,26.3,14.6,41.9c2.7,11.9,3.2,23.7,3.2,35.5
			c0.5,25.7,0,89.2,0,114.4c0,12.4,0,24.2,0,36c0,6.9,0.5,13.4,0.5,19.9c0.6,4.9-1.1,12.4,0,17.2c2.2,5.4,11.4,8.7,16.2,10.7
			c10.3,4.9,20.1,11.3,29.8,16.7c0-14,0-190.2,0.6-190.2C-116.2-1638.8-135.7-1688.3-162.8-1730.7"/>
		<path id="path26" d="M-1963.8-1912.3l1.1,321.9c14.6-8.1,29.2-16.6,43.8-25.3c7.1-4.3,14.7-8.6,22.2-12.3
			c5.4-3.2,9.8-3.8,9.2-10.2v-229.4L-1963.8-1912.3z M-1863.2-1637.8c-34.1,19.3-67.6,39.3-101.7,58.6c-8.1,4.3-7-11.8-6.5-15.6
			c0.5-18.8,0-37.6-0.5-55.9c0-80,0-181.6-0.6-261.6c-13.5,8.1-31.3,16.1-45.4,24.2v19.9c0,64.5,0,267.1,0,318.7l-110.9,63.4v54.3
			c86-52.2,179.6-100.5,265.1-153.1L-1863.2-1637.8z M-2124-1425l77.4,45.7l262.9-154.7c-25.4-14.6-48.7-28-73.6-42.5L-2124-1425z
			 M-1777.1-1593.1l-77.4-44.6c0,42.5-2.2,51,0.5,53.7l76.9,43.5V-1593.1z M-2047.1-1369.1l-90.4-54.3v-66.6l110.9-64.5l0.6-319.2
			c0-4.3-1.7-12.8,1.1-17.2c4.9-7,15.2-10.2,22.7-14.5c5.4-3.3,10.8-6,16.2-9.2c4.9-2.7,13-9.6,18.4-9.1c5.4,0.5,11.3,5.4,15.7,8.1
			l72.5,43v234.3c5.9-3.2,15.7-8.6,22.2-10.7l68.7,39.3l19.5,11.8v66.1L-2047.1-1369.1z M-1525.5-1775.3
			c-14.1-8.1-26-16.1-40.1-24.2c0,16.1,0,32.2,0,48.4C-1551.5-1759.2-1539.7-1767.2-1525.5-1775.3z M-1607.3-1412.1
			c27.7-16.1,54.1-32.2,81.8-47.8c-52-29.6-101.7-60.7-154.8-88.7c-23.7,12.9-64.3,34.9-83.9,46.3
			C-1712.2-1472.2-1659.7-1442.2-1607.3-1412.1z M-1712.8-1605c6.5-3.7,13-7.5,19.5-11.3c5.9-3.7,11.3-6.4,18.3-3.2
			c15.2,7.5,29.8,17.2,44.4,25.8c0.5-79.6,0.5-158.5,1.1-237.5c-21.6,12.4-43.3,24.7-65.4,37.6c-5.9,3.2-16.8,7-17.9,15.1V-1605z
			 M-1768.5-1509.9c27.6-15.6,55.2-31.7,83.3-47.3v-53.7l-83.3,46.8V-1509.9z M-1684.6-1886c0-13.4,0-25.3,0-38.7
			c-27.6,16.1-56.3,30.7-83.9,46.3c0,17.7,0,35.4,0,53.1l81.2-45.7C-1683.6-1873.7-1684.6-1881.7-1684.6-1886z M-1764.2-1817.8
			c10.3,5.9,22.2,12.4,33.1,18.3c4.8,2.7,9.2,5.9,14.1,8.6c4.9-2.7,9.7-5.4,14.6-8.6c23.3-12.9,46-26.3,68.8-39.3
			c-15.7-9.1-30.9-17.7-46.6-26.9L-1764.2-1817.8z M-1521.3-1836.6c-4.9-3.2-16.2-10.2-21.1-12.9c-9.2-5.4-17.8-10.1-27.1-15.5
			c-35.2-20.4-70.9-40.9-106.6-61.3c0,10.2,0,34.4,0,44.6c0,6-0.5,8.1,5.4,11.9c14.6,8.6,27,16.1,42.2,23.7
			c8.6,3.7,8.1,10.1,7.5,18.8c-0.5,9.1,0,18.2,0,27.4c0,19.9-0.5,39.8-0.5,59.6c0,40.8,0,81.1-0.5,121.4c0,9.7,0,18.8,0,28
			c0.5,6.9-2.7,10.8-9.2,6.9c-15.7-7.5-30.4-17.7-45.5-26.3c0,10.2,0,44.1,0,54.3c52.4,29,103.3,58.5,154.2,89.7v-54.3l-50.9-32.8
			v-261.2l9.2,6c14.7,9.1,28.2,17.2,42.8,25.7L-1521.3-1836.6z M-1513.1-1772.6l-51.9,31.7v182.7l51.9,32.2v68.2l-93,55.4
			c-55.2-29.6-118-66.6-170.4-97.8v-65.5c1.1-6.4,3.8-6.4,8.6-9.1l44.9-24.2c2.7-2.2,2.1-5.4,2.1-8.7c-0.5-6.4,0-12.8,0-19.3
			c0-14.5,0-29,0-43.5v-111.8l-52.4-30.6l-3.2-2.2c0-14.5,0-38.1,0-52.6v-14.6l96.9-54.8l166.6,93.5V-1772.6z M-1242.1-1346.5
			c27.7-16.1,55.2-32.2,82.8-47.8c-11.3-6.5-22.7-12.9-33.5-19.3c-3.8-2.2-7.6-3.8-11.9-4.3c-4.3-1-10.3,2.2-13.5,3.7
			c-23.8,14-47,27.5-70.9,40.9C-1273.4-1364.3-1257.7-1355.7-1242.1-1346.5z M-1219.3-1423.9c4.3-2.7,8.1-7.5,8.1-12.9
			c0-6.4,0-12.9,0-19.3c0-27.4,0-54.9,0-82.2c0-53.2,0-106.9,0-160.7c-18.9,21.5-37.9,43-56.8,64.5c-4.9,4.9-9.2,10.2-14.1,15.6
			c-3.8,4.3-10.3,8.1-10.3,15.1c0,15,0,29.6,0,44.6c-0.5,59.7-0.5,118.8-0.5,178.4L-1219.3-1423.9z M-1513.1-1876.4v368.1l82.3-48.4
			v-367.5L-1513.1-1876.4z M-1509.9-1500.2c10.8,6,33.1,20.4,43.9,26.3l85.4-47.2c-14.6-8.7-29.2-17.2-43.8-25.3
			c-4.4-2.7-10.8,2.7-14.6,4.9L-1509.9-1500.2z M-1291.3-1750.1c-9.2,8.1-16.2,18.3-24.3,27.5c-9.2,10.1-17.8,19.9-27.1,30.1
			c-7.6,8.1-15.1,16.1-22.7,24.7l-1.7,7.5c0,7.5,0,23.7,0,31.1c47.1-53.1,93.6-106.3,141.8-158.5
			C-1247.5-1774.8-1269.2-1762.4-1291.3-1750.1z M-1154.9-1769.9c-11.4-6.4-22.8-13.4-33.6-19.9c-4.3-2.7-8.6-6-13-8.1
			c-3.8-1.6-9.7,7.5-11.9,9.6c-18.9,21-37.9,41.9-56.3,62.9c-18.9,20.9-37.3,41.9-56.3,62.8c-8.6,10.2-17.8,19.9-26.5,30.1
			c-3.8,4.3-13,19.3-20.6,18.8l-3.2-2.7V-1894l-46-29.6v368.6c17.8,10.7,33,21,48.7,27.9c2.7,1.1,16.2-17.7,18.9-20.9
			c9.2-10.7,18.9-22.1,28.6-33.4c18.4-21.5,36.3-42.5,55.2-63.4c14.1-16.1,28.1-31.7,42.2-47.3c3.8-4.3,22.8-32.8,25.5-17.8l0.5,2.2
			c0,21.5,0,79.6,0,101c0,43.5,0,87,0,130c0,10.2,0,33.4,0,43.5l4.4,7c14.1,8.6,29.2,16.1,43.3,24.2V-1769.9z M-1146.8-1392.8
			c-2.7,4.9-9.2,7-13.5,9.2l-70.9,40.3c-5.4,3.2-8.6,6.9-15.1,4.9l-55.2-32.8c0-74.1,0-178.4,0.6-226.2
			c-17.9,21-35.8,41.9-53.6,62.9c-3.8,4.3-7.6,9.1-11.3,14c-4.4,4.3-10.3,6.9-15.7,9.6l-85,46.3l-49.2-28.5c-5.9-2.7-5.9-7-5.9-12.9
			v-352.5c0-5.9-0.5-12.4,0-17.8c1.1-5.9,6.5-8.6,11.3-11.3c17.4-10.2,35.2-20.4,53.1-30.6c7-4.3,14.6-8.1,21.1-12.4
			c7-4.9,11.3-6.4,18.9-1.6c14.1,9.6,34.6,23.6,50.3,31.6v221.9l66.1-72.5c3.8-4.3,9.7-8.6,14.6-11.3c12.5-7.5,25.4-14.6,38.4-22
			c11.9-7,23.3-13.4,35.2-20.4c5.4-3.2,8.1-4.9,14.1-1c6,3.7,12.5,6.9,18.4,10.8c9.8,5.9,20.1,11.3,29.8,17.7
			c4.4,2.7,4.4,4.9,4.4,9.7c0,121.9,0,243.4,0,364.9C-1146.3-1399.2-1145.3-1395.5-1146.8-1392.8L-1146.8-1392.8z M-1118.7-1890.3
			c-8.1,4.3-15.7,9.2-23.8,13.4c-5.9,3.8-3.8,2.2-3.8,7.5v362.7c7.6-4.3,15.1-8.6,22.7-13.4c16.2-9.1,31.9-18.3,47.6-27.4
			c5.4-3.2,5.9-4.3,5.9-10.7c0.5-8.1,0.5-16.6,0.5-24.7c0-37.1,0-74.2,0-111.8c0.5-74.7,0.5-149.9,1.1-224.6
			C-1085.2-1909.6-1102-1899.9-1118.7-1890.3z M-1067.3-1542.6c-4.4,2.7-8.6,5.4-13,7.5c-20.5,12.4-41.1,24.2-61.7,36
			c34.6,19.9,69.3,39.8,103.9,59.6c25.4,12.9,53,24.7,82.2,21.5c30.3-3.2,57.9-25.2,83.3-39.8c-15.7,1.1-30.8-1.6-45.5-6.4
			c-40.1-11.9-74.6-37.6-110.4-58.1c-9.7-5.4-18.9-10.7-28.6-16.6C-1059.7-1539.9-1064.1-1544.3-1067.3-1542.6L-1067.3-1542.6z
			 M-794.6-1610.4c-6.5-46.2-23.3-90.2-47.1-130c-22.7-38.7-51.9-74.7-88.1-102.1c-18.9-14.5-40.6-25.8-61.7-37.6
			c-22.7-12.9-45.5-26.3-68.2-39.3c-0.5,113.4-1.1,227.3-1.1,340.7c0,6.5,0,12.9,0,19.3c0,2.7,0.6,5.4,0,8.7
			c2.7,0.5,5.4,2.1,8.1,3.7c11.9,6.4,22.8,14.5,34.1,21.5c22.2,12.4,44.3,25.2,67.1,37.1c42.2,22,98.4,36,133.6-7
			C-791.4-1527.1-789.8-1571.7-794.6-1610.4z M-914.8-1529.2c-15.1-2.2-29.2-7.5-42.2-15.1c-15.2-9.1-30.9-17.2-46.5-25.8
			c-4.9-2.7-9.8-5.4-10.8-11.8c0-8.6,0-17.2,0-25.8c0-37,0.5-74.6,0.5-111.7c0-36.6,0-73.1,0-109.1c0.5-12.9,11.9-4.3,17.8-1
			c14.7,8.6,30.3,16.1,44.4,25.2c52.4,30.7,89.3,86,105,143.5c7.5,27.9,11.9,59.1,2.1,87C-854.7-1544.3-883.4-1524.4-914.8-1529.2
			L-914.8-1529.2z M-865.5-1688.3c-12.5-30.1-30.9-58-54.7-80c-24.9-23.7-55.2-39.3-84.9-56.4c0,29.6,0,58.5,0,88.1
			c0,6,2.2,8.1,6.5,11.9c4.9,4.9,9.8,10.2,14.1,15.6c9.2,10.7,17.8,22,24.9,34.3c15.1,24.8,27.1,52.2,32.5,81.2
			c2.7,14,4.3,29,1.6,43.5c-1.1,5.9-3.2,9.6,3.8,10.7c6.5,1,13,2.2,19.5,2.2c30.3,0,48.7-29,53.1-55.9
			C-843.9-1624.9-853.1-1658.7-865.5-1688.3L-865.5-1688.3z M-786-1550.7c-2.7,19.9-9.8,39.7-21.6,56.4
			c-12.5,16.6-31.4,26.9-49.2,37c-39,23.1-78.4,54.3-127.1,47.3c-42.8-7-78.4-33.9-115.3-54.8c-10.8-6-21.6-12.4-33-18.8
			c-4.4-2.2-8.6-5.4-13-7.5c-3.2-1.6-5.9-2.7-7.6-6.5c-1.1-2.7-2.7-6.4-2.1-9.6c0-137.5,0-233.2,0-360.5c0-3.8-0.6-10.7,3.2-13.4
			c24.3-14,48.7-28.5,73.6-42.5c9.8-5.9,13-9.7,23.3-2.7c11.9,8.1,25.4,14.5,37.9,21.5c43.3,24.7,88.1,47.8,124.4,83.3
			c34.6,34.4,62.2,76.8,81.7,121.9C-791.4-1653.4-778.4-1601.2-786-1550.7L-786-1550.7z M-1005.1-1700.1c0,34.9-0.5,69.8-0.5,104.8
			c0,7.5-2.2,13.4,5.4,17.2c6.5,3.3,13,6.5,19.5,10.2c14.6,8.6,29.2,17.2,44.9,23.7c8.6-31.2-2.2-65.5-14.7-94
			c-13-29.6-30.3-58.6-54.6-80.1C-1005.1-1711.9-1005.1-1706-1005.1-1700.1L-1005.1-1700.1z M-482.5-1742
			c-50.9-29-102.8-58.5-153.7-87.5c0,18.3,0,36.5,0,54.8c0,8.6,0.6,17.2,0,25.8c-0.5,7.5,10.8,10.7,16.8,14
			c20,11.3,39.4,23.1,59.5,34.4c4.3,2.2,7-0.5,10.2-2.7L-482.5-1742z M-524.7-1560.4c13.5-8.1,28.6-15.1,42.2-23.1
			c-50.9-29-102.8-59.1-153.7-88.1c0,18.2,0,37,0,55.3c0,8.6,0,17.8,0,26.3l65.5,40.3c3.2,2.2,7,4.3,10.8,6.4
			c3.8,2.2,6.5-0.5,10.2-2.7C-541.5-1550.7-533.4-1555.5-524.7-1560.4L-524.7-1560.4z M-699.4-1924.1c-24.9,14-49.2,29-74.1,42.4
			c-7.6,4.9-10.3,6-10.3,15.6v358.4c28.1-16.1,56.3-31.7,84.4-47.8V-1924.1z M-704.8-1542.6c-24.3,14-49.2,27.9-74.1,42.4
			c70.9,40.3,141.2,81.2,212.1,121.5c27.6-15.6,56.8-31.2,84.4-47.3l-206.1-118.7C-695.1-1548.6-698.4-1546.4-704.8-1542.6
			L-704.8-1542.6z M-690.8-1924.1c0,95.1,0,190.7,0,286.3c0,23.7,0,44.6,0,67.7c0,3.8-0.5,7.5,0,11.3c0,2.7,9.8,9.1,11.9,10.7
			c67,36.5,134.1,76.3,200.7,114.4c0-14.5,0-26.9,0-41.9c0-9.7-3.2-12.9-10.8-16.7c-20.1-11.8-49.2-29-69.3-40.3l-86-50.4v-89.8
			c0-3.2-1.1-12.3,4.9-10.2c10.8,3.3,3.2,0.6,13,6.5c42.8,24.7,105.5,60.7,148.3,85.4c0-10.7,0-31.7,0-42.5c0-8.1,1.6-10.2-5.9-15.1
			c-21.1-11.8-41.2-22.5-61.7-34.4c-30.9-17.7-62.7-36-93.6-53.7c-8.1-4.3-5.4-12.8-5.4-20.4c0-23.7,0-46.8,0-69.9
			c0-6.5-1.6-17.8,8.1-12.9c9.2,4.3,18.4,10.2,27.1,15.6c43.8,24.7,87.7,49.9,131.5,75.2c0-18.3,0-35.4,0-53.2L-690.8-1924.1z
			 M-470-1739.3l-78.4,45.1c26.5,16.1,54.6,29,79,46.8v62.8c-1.1,7-11.9,10.2-17.3,13.4c-20.1,11.8-41.2,22.5-61.7,34.4
			c20.5,11.8,49.7,29.6,69.8,40.8c7,3.7,8.6,6.4,9.2,15.1v47.8c0,9.2-2.2,12.4-10.8,16.7c-24.3,12.3-54.6,29-77.9,43
			c-3.8,2.1-4.3,3.7-8.6,3.7s-10.3-4.8-14.1-7c-5.9-3.7-11.9-6.9-17.9-10.2c-21.1-12.4-42.2-24.2-62.7-36
			c-42.2-24.7-84.9-48.9-127.1-73.1l-4.4-5.4v-367.5c0-4.3,0.6-11.3,4.4-14l93-53.2c26,13.4,51.4,28.5,77.4,43.5L-470-1807
			L-470-1739.3z M-197.9-1345.5c25.5-15.1,51.4-29.6,76.9-44.6c-10.3-5.9-21.1-11.8-31.4-17.7c-4.9-2.7-9.7-7-15.1-8.6
			c-2.2-0.6-6,3.2-7.6,4.3c-23.3,12.9-46.5,26.3-69.3,39.8C-228.7-1363.2-213.6-1354.6-197.9-1345.5z M-318-1729.1
			c2.7,4.9,5.9,9.7,8.6,14.6c23.3,40.3,53.6,80,59.5,127.3c3.8,26.9,1.7,54.8,1.1,81.6c0,29.6,0,96.2,0,125.7
			c16.8-9.6,33.5-19.3,50.3-29c7.1-4.2,14.1-8.6,21.6-12.3c7.6-3.8,4.9-13.4,4.9-20.4c0-38.7,0.5-115,0.5-153.1
			c0-17.7,0-36-3.8-53.7c-4.3-17.2-11.3-33.3-20.1-48.9c-17.8-31.7-37.3-63.4-55.7-95.1c-19.5,11.3-39,22.5-58.5,33.8
			c-8.1,4.8-11.9,7.5-14.6,16.6C-325.1-1738.2-319.7-1732.3-318-1729.1z M-419.2-1472.2c25.9-15.1,51.4-29.6,76.8-44.6
			c-10.3-5.9-20-11.3-30.3-17.2c-5.4-3.2-10.3-6.5-15.7-8.6c-2.7-1.6-5.9,2.7-8.1,3.7c-23.3,13.4-46,26.3-69.3,39.8
			C-450-1490-434.3-1481.4-419.2-1472.2z M-438.7-1775.8c-3.8,3.2-7,6.4-9.7,9.6c-5.9,7.5-10.8,16.1-14.1,25.3
			c-7.1,19.9-7.1,40.3-7.1,61.3c0,45.1-0.5,127.8-0.5,173c12.4-7,24.9-14.5,37.3-21.5c7-3.7,13.5-7.5,20-11.3
			c5.4-3.2,14.6-6.5,18.4-10.7l1.1-61.3c-0.5-14,0-28.5,0-42.5c0.5-27.9,0-55.9,0-83.8c0.5-25.8,3.2-53.2,17.9-75.2L-438.7-1775.8z
			 M-162.8-1730.7c-27.6-47.8-55.7-95.1-83.9-143c-1.1-2.1-2.1-4.3-3.2-5.9c-3.2,1.6-5.9,3.2-9.2,4.3c-5.9,3.2-11.9,6.4-17.9,9.6
			c-13,6.5-25.9,13.4-38.9,19.9c-22.2,11.3-44.9,21.5-56.3,44.6c-11.9,23.1-12.5,49.5-12.5,74.7c0,27.4,0.6,55.4,0,83.3
			c0,38.1-1.6,84.4,1.1,91.9c2.2,5.4,15.1,9.7,20,12.4c8.6,4.9,16.8,9.7,25.5,14.5c0-39.2,0.5-116,0-155.2
			c-0.6-18.3-1.1-37.1,2.7-54.9c3.2-16.6,10.8-25.2,24.9-33.3c15.7-9.2,32.5-17.2,47-27.4c3.8-2.7,8.1-6.5,13.5-7
			c5.9-1,9.3,11.3,11.9,15.1c18.3,32.8,37.9,65,56.8,97.2c8.6,12.9,11.9,26.3,14.6,41.9c2.7,11.9,3.2,23.7,3.2,35.5
			c0.5,25.7,0,89.2,0,114.4c0,12.4,0,24.2,0,36c0,6.9,0.5,13.4,0.5,19.9c0.6,4.9-1.1,12.4,0,17.2c2.2,5.4,11.4,8.7,16.2,10.7
			c10.3,4.9,20.1,11.3,29.8,16.7c0-14,0-190.2,0.6-190.2C-116.2-1638.8-135.7-1688.3-162.8-1730.7L-162.8-1730.7z M-123.2-1378.7
			c-23.8,11.8-44.9,27.4-68.2,39.7c-10.3,6-22.8-5.9-31.9-11.3c-9.2-5.4-20.6-9.6-28.7-16.1c-8.6-6.4-5.4-20.4-5.4-29.6
			c0-15,0-67.2,0-82.2c0-52.7,7.6-109.1-16.8-158c-15.7-31.7-35.7-61.8-53.6-92.5c-1.6,12.9-1.1,25.8-1.1,38.2
			c0,14.5-0.5,29.6-0.5,44c0,28.5,0,94.6,0,123.1c0,5.4,1.1,9.1-4.3,11.8c-3.8,2.7-8.1,4.9-12.4,7c-13,7.5-25.5,14.5-38.5,22
			c-5.9,3.2-11.3,7-17.3,10.2c-4.9,2.7-10.8,8.1-16.2,9.1c-4.9,0.5-12.5-5.4-16.2-7.5c-6.5-3.7-12.5-7.5-18.9-11.3
			c-8.1-4.9-25.4-9.6-25.4-20.4c0-15.1,0-29.6,0-44.6c0.5-27.9,0.5-94,0.5-121.9c0-25.8-0.5-49,8.1-73.7c4.9-14,12.4-31.1,25.4-40.3
			c4.3-2.7,14.1-9.6,20.6-12.3c13.5-6.5,26.5-15.1,40.1-22.6c29.2-17.2,59.5-32.8,89.8-48.4c14.1-7.5,27.6-15.6,41.6-22
			c7.1-3.2,9.2,3.2,12.5,8.1c4.3,7.5,8.6,14.5,13,22c15.6,28,30.8,56.4,48.7,83.3c7.5,12.9,17.8,25.8,23.2,39.3
			c18.9,30.1,33.6,64,41.7,98.3c5.9,28,5.4,55.4,5.4,83.9c0,28.4,0,94,0,122.5c0,11.3,0,22.6,0.5,33.9
			C-107-1385.2-114.6-1383.1-123.2-1378.7"/>
	</g>
</g>
</svg>
